<svg width="57" height="56" viewBox="0 0 57 56" fill="none" xmlns="http://www.w3.org/2000/svg">
<path d="M9.50112 0H46.829C51.9827 0 56.165 4.18107 56.165 9.33333V46.6667C56.165 51.8189 51.9827 56 46.829 56H9.50112C4.33087 56 0.165039 51.8189 0.165039 46.6667V9.33333C0.165039 4.18107 4.33087 0 9.50112 0Z" fill="#003399"/>
<path d="M5.15527 28.3242H9.50284V46.372H5.15527V28.3242Z" fill="#FFFF00"/>
<path fill-rule="evenodd" clip-rule="evenodd" d="M23.2866 33.7354C24.3735 33.1306 26.3661 32.4621 29.0339 32.4621C33.8426 32.4621 35.5059 35.12 35.5059 38.3826V46.3879H31.9652L31.4877 44.9873H31.4383C30.4831 46.0696 28.9187 46.7221 27.0578 46.7221C23.9453 46.7221 22.2491 44.6372 22.2491 42.5842C22.2491 39.0828 25.7403 37.3163 31.3889 37.3322V37.1889C31.3889 36.5523 30.8619 35.311 28.3093 35.311C26.7778 35.311 25.0981 35.8202 24.11 36.3932L23.2866 33.7354ZM31.4547 42.0749C31.5041 41.8521 31.5206 41.6133 31.5206 41.3905H31.5041V39.9582C31.2077 39.9582 30.9278 39.9582 30.6478 39.9741C30.1867 39.99 29.7585 40.0218 29.3633 40.0855C27.6836 40.3401 26.5637 40.9927 26.5637 42.2659C26.5637 43.3958 27.3871 44.0006 28.5893 44.0006C29.9561 44.0006 30.9936 43.1571 31.3724 42.2818C31.3806 42.2738 31.3847 42.2619 31.3889 42.2499C31.393 42.238 31.3971 42.2261 31.4053 42.2181C31.4218 42.2022 31.4547 42.1067 31.4547 42.0749Z" fill="#FFFF00"/>
<path d="M47.5275 32.86V40.7858C47.5275 41.1041 47.4946 41.3905 47.3793 41.6452C47.0335 42.4568 46.1772 43.3799 44.7609 43.3799C42.9824 43.3799 42.2084 42.1226 42.2084 40.0059V32.8441H37.9596V40.7539C37.9596 41.8202 38.0914 42.7115 38.3548 43.4595C38.6183 44.2075 38.9806 44.8123 39.4417 45.2897C39.9028 45.7672 40.4463 46.1332 41.0885 46.356C41.7308 46.5789 42.4389 46.6903 43.1964 46.6903C43.8716 46.6903 44.4645 46.6107 44.975 46.4515C45.4855 46.2924 45.9466 46.1014 46.3089 45.8786C46.6877 45.6558 47.0006 45.4171 47.2476 45.1624C47.4946 44.9078 47.6922 44.669 47.8404 44.4621L48.3839 46.3879H51.8257V32.86H47.5275Z" fill="#FFFF00"/>
<path d="M13.6034 28.3242V32.8441H11.6107V35.9316H13.6034V41.4383C13.6034 43.2526 13.9821 44.6213 14.7891 45.4489C15.4972 46.181 16.7158 46.7062 18.2144 46.7062C19.4989 46.7062 19.993 46.5152 20.5694 46.3083V43.173C20.4541 43.2208 20.1083 43.2844 19.6801 43.2844C18.165 43.2844 17.8192 42.3773 17.8192 40.7221V35.9316H20.52V32.8441H17.8192V28.3242H13.6034Z" fill="#FFFF00"/>
<path fill-rule="evenodd" clip-rule="evenodd" d="M45.9137 28.3242L43.2952 31.9688H46.3254L50.0307 28.3242H45.9137Z" fill="#FFFF00"/>
</svg>
